<svg width="36" height="36" viewBox="52 55 115 108" xmlns="http://www.w3.org/2000/svg" style="flex-shrink: 0;"><path d="M0 0 C1.11052734 -0.02900391 2.22105469 -0.05800781 3.36523438 -0.08789062 C4.42935547 -0.09626953 5.49347656 -0.10464844 6.58984375 -0.11328125 C7.56687256 -0.12786377 8.54390137 -0.14244629 9.55053711 -0.1574707 C12.0625 0.3125 12.0625 0.3125 13.69482422 1.86791992 C15.50430986 5.10218978 16.98954142 8.43749725 18.41796875 11.8515625 C18.72446854 12.57362885 19.03096832 13.29569519 19.34675598 14.03964233 C19.9905757 15.55981362 20.63169383 17.0811316 21.27026367 18.60351562 C22.2507117 20.93919546 23.2408909 23.27056912 24.23242188 25.6015625 C24.85734996 27.08048459 25.48171858 28.55964323 26.10546875 30.0390625 C26.55070137 31.08750839 26.55070137 31.08750839 27.00492859 32.15713501 C29.0625 37.08135468 29.0625 37.08135468 29.0625 39.3125 C30.031875 38.508125 31.00125 37.70375 32 36.875 C38.96751461 31.93211388 47.87029193 33.17468715 56.0625 33.3125 C56.0625 34.3025 56.0625 35.2925 56.0625 36.3125 C54.3046875 37.9609375 54.3046875 37.9609375 51.9375 39.6875 C51.11765625 40.29980469 50.2978125 40.91210938 49.453125 41.54296875 C48.66421875 42.12691406 47.8753125 42.71085937 47.0625 43.3125 C41.82394305 47.18209047 41.82394305 47.18209047 38.0625 52.3125 C38.44119718 57.98842699 39.71132304 62.59723522 42.08203125 67.77734375 C42.53179573 68.79375694 42.53179573 68.79375694 42.99064636 69.83070374 C43.94222875 71.9750315 44.90823945 74.11247912 45.875 76.25 C46.51204217 77.67860233 47.14811768 79.10763611 47.78320312 80.53710938 C51.04148933 87.89061321 51.04148933 87.89061321 54.43896484 95.18017578 C54.81359863 95.96763184 55.18823242 96.75508789 55.57421875 97.56640625 C55.89221436 98.21037354 56.21020996 98.85434082 56.5378418 99.51782227 C57.19499285 101.76571311 56.79794476 103.12251567 56.0625 105.3125 C48.55712183 105.68161696 48.55712183 105.68161696 46.64233398 104.25268555 C44.36374779 101.4543662 43.11730056 98.27873096 41.7421875 94.9765625 C41.43805939 94.26019623 41.13393127 93.54382996 40.82058716 92.80575562 C40.18010244 91.29255822 39.54320726 89.77783715 38.90966797 88.26171875 C37.94237844 85.94916316 36.96237833 83.64231759 35.98046875 81.3359375 C35.35861052 79.86230154 34.73749212 78.3883531 34.1171875 76.9140625 C33.67969681 75.88413681 33.67969681 75.88413681 33.23336792 74.83340454 C31.78522672 71.35065272 30.63253999 68.0470274 30.0625 64.3125 C26.69723833 67.45341089 24.35737036 69.8903506 23.7890625 74.55859375 C24.15642543 78.25846331 25.65445421 80.33843768 27.6875 83.4375 C28.41988144 84.58341522 29.15032118 85.73057352 29.87890625 86.87890625 C30.24516113 87.45141113 30.61141602 88.02391602 30.98876953 88.61376953 C32.60097545 91.16441272 34.12990567 93.75418758 35.625 96.375 C36.36943359 97.66083984 36.36943359 97.66083984 37.12890625 98.97265625 C38.20818376 101.67762375 37.87740861 102.60694639 37.0625 105.3125 C33.97948584 105.42894156 30.89703877 105.49982432 27.8125 105.5625 C26.93980469 105.59601563 26.06710938 105.62953125 25.16796875 105.6640625 C18.78488101 105.76151422 18.78488101 105.76151422 15.78125 103.89453125 C13.18011859 99.98692247 10.99119671 95.90467958 8.8125 91.75 C4.7185455 84.12759966 0.51627618 77.05513358 -4.9375 70.3125 C-5.51628906 69.59449219 -6.09507813 68.87648438 -6.69140625 68.13671875 C-9.4115813 64.74776915 -9.4115813 64.74776915 -12.9375 62.3125 C-13.51177734 64.15134766 -13.51177734 64.15134766 -14.09765625 66.02734375 C-16.13847977 72.14502645 -18.7529052 77.98844984 -21.375 83.875 C-21.85259766 84.95974609 -22.33019531 86.04449219 -22.82226562 87.16210938 C-29.99724265 103.37224265 -29.99724265 103.37224265 -31.9375 105.3125 C-33.36705789 105.41141197 -34.80140073 105.44329423 -36.234375 105.4453125 C-37.1109375 105.44660156 -37.9875 105.44789063 -38.890625 105.44921875 C-39.81359375 105.44535156 -40.7365625 105.44148438 -41.6875 105.4375 C-42.595 105.44136719 -43.5025 105.44523437 -44.4375 105.44921875 C-45.76007813 105.44728516 -45.76007813 105.44728516 -47.109375 105.4453125 C-47.9147168 105.44418457 -48.72005859 105.44305664 -49.54980469 105.44189453 C-52.09097118 105.30418305 -54.45673386 104.86739372 -56.9375 104.3125 C-56.34680359 100.92437125 -55.49915163 97.9677591 -54.12744141 94.81689453 C-53.75680573 93.95895294 -53.38617004 93.10101135 -53.00430298 92.21707153 C-52.60327362 91.30239105 -52.20224426 90.38771057 -51.7890625 89.4453125 C-51.37586761 88.49236298 -50.96267273 87.53941345 -50.53695679 86.55758667 C-49.21672185 83.51554157 -47.88974345 80.47649289 -46.5625 77.4375 C-45.67663087 75.39993624 -44.79120927 73.36217785 -43.90625 71.32421875 C-42.27574145 67.57055346 -40.64244414 63.81812731 -39.00634766 60.06689453 C-38.65246979 59.25334503 -38.29859192 58.43979553 -37.93399048 57.60159302 C-37.29778109 56.14012149 -36.65931636 54.67962831 -36.01791382 53.22042847 C-33.73521531 48.42299137 -33.73521531 48.42299137 -33.9375 43.3125 C-36.13786067 41.39565919 -38.1060683 39.95279426 -40.5625 38.4375 C-41.23095947 38.00840332 -41.89941895 37.57930664 -42.58813477 37.13720703 C-49.12328717 33.02387364 -55.94068478 29.56833698 -62.9375 26.3125 C-62.4425 24.8275 -62.4425 24.8275 -61.9375 23.3125 C-57.32934965 23.28771065 -52.72123847 23.2695977 -48.11303711 23.25756836 C-46.54662398 23.25255144 -44.9802155 23.24573638 -43.41381836 23.23706055 C-41.15737761 23.22487906 -38.90099898 23.21924519 -36.64453125 23.21484375 C-35.60048882 23.20710182 -35.60048882 23.20710182 -34.53535461 23.19920349 C-30.87279848 23.19878454 -27.49881142 23.44101905 -23.9375 24.3125 C-23.64504395 23.62099854 -23.35258789 22.92949707 -23.05126953 22.21704102 C-21.72850797 19.10007749 -20.39565505 15.98753142 -19.0625 12.875 C-18.60230469 11.78638672 -18.14210937 10.69777344 -17.66796875 9.57617188 C-17.00087891 8.02446289 -17.00087891 8.02446289 -16.3203125 6.44140625 C-15.70760498 5.00390015 -15.70760498 5.00390015 -15.08251953 3.53735352 C-12.40387546 -1.6674404 -5.11372098 0.04436427 0 0 Z M8.0625 14.3125 C3.21502161 23.38862976 -0.47663399 32.6417113 -3.9375 42.3125 C-1.61364547 44.98754798 0.72369737 47.65051737 3.0625 50.3125 C3.85398437 51.22257812 4.64546875 52.13265625 5.4609375 53.0703125 C6.25757812 53.97523437 7.05421875 54.88015625 7.875 55.8125 C8.62394531 56.6684375 9.37289062 57.524375 10.14453125 58.40625 C11.84823281 60.54747888 11.84823281 60.54747888 14.0625 60.3125 C16.15595997 58.05685863 16.15595997 58.05685863 18.25 55.1875 C18.98605469 54.23617187 19.72210938 53.28484375 20.48046875 52.3046875 C22.44274209 48.59332608 22.00680045 47.33437263 21.0625 43.3125 C20.31125706 41.23385398 19.49575221 39.17768479 18.62890625 37.14453125 C18.14486328 36.00435547 17.66082031 34.86417969 17.16210938 33.68945312 C16.65486328 32.51318359 16.14761719 31.33691406 15.625 30.125 C14.86993164 28.34319336 14.86993164 28.34319336 14.09960938 26.52539062 C11.45868765 20.21919709 11.45868765 20.21919709 8.0625 14.3125 Z " fill="#0d9478" transform="translate(114.9375,56.6875)"/><path d="M0 0 C0 0.99 0 1.98 0 3 C-1.7578125 4.6484375 -1.7578125 4.6484375 -4.125 6.375 C-4.94484375 6.98730469 -5.7646875 7.59960938 -6.609375 8.23046875 C-7.39828125 8.81441406 -8.1871875 9.39835937 -9 10 C-14.23855695 13.86959047 -14.23855695 13.86959047 -18 19 C-17.62130282 24.67592699 -16.35117696 29.28473522 -13.98046875 34.46484375 C-13.68062576 35.14245255 -13.38078278 35.82006134 -13.07185364 36.51820374 C-12.12027125 38.6625315 -11.15426055 40.79997912 -10.1875 42.9375 C-9.55045783 44.36610233 -8.91438232 45.79513611 -8.27929688 47.22460938 C-5.02101067 54.57811321 -5.02101067 54.57811321 -1.62353516 61.86767578 C-1.24890137 62.65513184 -0.87426758 63.44258789 -0.48828125 64.25390625 C-0.17028564 64.89787354 0.14770996 65.54184082 0.4753418 66.20532227 C1.13249285 68.45321311 0.73544476 69.81001567 0 72 C-7.50537817 72.36911696 -7.50537817 72.36911696 -9.42016602 70.94018555 C-11.69875221 68.1418662 -12.94519944 64.96623096 -14.3203125 61.6640625 C-14.62444061 60.94769623 -14.92856873 60.23132996 -15.24191284 59.49325562 C-15.88239756 57.98005822 -16.51929274 56.46533715 -17.15283203 54.94921875 C-18.12012156 52.63666316 -19.10012167 50.32981759 -20.08203125 48.0234375 C-20.70388948 46.54980154 -21.32500788 45.0758531 -21.9453125 43.6015625 C-22.23697296 42.91494537 -22.52863342 42.22832825 -22.82913208 41.52090454 C-24.27727328 38.03815272 -25.42996001 34.7345274 -26 31 C-29.36526167 34.14091089 -31.70512964 36.5778506 -32.2734375 41.24609375 C-31.90607457 44.94596331 -30.40804579 47.02593768 -28.375 50.125 C-27.64261856 51.27091522 -26.91217882 52.41807352 -26.18359375 53.56640625 C-25.81733887 54.13891113 -25.45108398 54.71141602 -25.07373047 55.30126953 C-23.46152455 57.85191272 -21.93259433 60.44168758 -20.4375 63.0625 C-19.94121094 63.91972656 -19.44492188 64.77695313 -18.93359375 65.66015625 C-17.85431624 68.36512375 -18.18509139 69.29444639 -19 72 C-22.08301416 72.11644156 -25.16546123 72.18732432 -28.25 72.25 C-29.12269531 72.28351563 -29.99539062 72.31703125 -30.89453125 72.3515625 C-32.16103516 72.37089844 -32.16103516 72.37089844 -33.453125 72.390625 C-34.61569824 72.4220459 -34.61569824 72.4220459 -35.80175781 72.45410156 C-38.89395433 71.81533151 -40.00260528 70.40044137 -42 68 C-43.43212891 65.75756836 -43.43212891 65.75756836 -44.7265625 63.33984375 C-45.2009375 62.46392578 -45.6753125 61.58800781 -46.1640625 60.68554688 C-46.64617187 59.77869141 -47.12828125 58.87183594 -47.625 57.9375 C-48.59528367 56.13353839 -49.56659475 54.33012891 -50.5390625 52.52734375 C-50.96396973 51.73062256 -51.38887695 50.93390137 -51.82666016 50.11303711 C-53.06827964 47.80980754 -53.06827964 47.80980754 -55 45 C-59.49286631 33.59233164 -61.22965502 21.22912961 -61 9 C-59 9 -59 9 -57.5546875 10.43359375 C-57.00039062 11.09488281 -56.44609375 11.75617188 -55.875 12.4375 C-55.26011719 13.159375 -54.64523438 13.88125 -54.01171875 14.625 C-53.34785156 15.40875 -52.68398437 16.1925 -52 17 C-50.56834364 18.65091904 -49.13093753 20.29687155 -47.6875 21.9375 C-47.03136719 22.68902344 -46.37523438 23.44054687 -45.69921875 24.21484375 C-44.11045152 26.08624197 -44.11045152 26.08624197 -42 27 C-41.773125 26.29875 -41.54625 25.5975 -41.3125 24.875 C-38.33193348 18.34614 -32.69263211 13.24748267 -27 9 C-26.34 9 -25.68 9 -25 9 C-24.9175 8.236875 -24.835 7.47375 -24.75 6.6875 C-24 4 -24 4 -22.5 2.25 C-15.79646064 -1.10176968 -7.30400983 -0.12287119 0 0 Z " fill="#1abb9b" transform="translate(171,90)"/><path d="M0 0 C1.11619133 0.9540693 2.23200329 1.90858246 3.34765625 2.86328125 C3.96906494 3.39477783 4.59047363 3.92627441 5.23071289 4.47387695 C7.27464738 6.23690089 9.23519739 7.95282897 11 10 C11 10.99 11 11.98 11 13 C11.639375 13.2475 12.27875 13.495 12.9375 13.75 C15 15 15 15 15.5625 17.0625 C15.706875 17.701875 15.85125 18.34125 16 19 C16.99 19.33 17.98 19.66 19 20 C20.71875 22.3984375 20.71875 22.3984375 22.5 25.375 C24.46729108 28.64518999 26.30554373 31.32197334 29 34 C29 34.66 29 35.32 29 36 C29.60610107 36.08467529 30.21220215 36.16935059 30.83666992 36.2565918 C33.65942371 37.22660481 34.17255941 38.3170773 35.61328125 40.89453125 C36.2774707 42.08079102 36.2774707 42.08079102 36.95507812 43.29101562 C37.40302734 44.12310547 37.85097656 44.95519531 38.3125 45.8125 C38.77978516 46.63298828 39.24707031 47.45347656 39.72851562 48.29882812 C43.09500995 54.43012429 43.09500995 54.43012429 42.62182617 57.26831055 C42.41662354 57.83976807 42.2114209 58.41122559 42 59 C38.91698584 59.11644156 35.83453877 59.18732432 32.75 59.25 C31.44095703 59.30027344 31.44095703 59.30027344 30.10546875 59.3515625 C29.26113281 59.36445313 28.41679687 59.37734375 27.546875 59.390625 C26.77182617 59.41157227 25.99677734 59.43251953 25.19824219 59.45410156 C22.10604567 58.81533151 20.99739472 57.40044137 19 55 C17.56787109 52.75756836 17.56787109 52.75756836 16.2734375 50.33984375 C15.7990625 49.46392578 15.3246875 48.58800781 14.8359375 47.68554688 C14.35382813 46.77869141 13.87171875 45.87183594 13.375 44.9375 C12.40471633 43.13353839 11.43340525 41.33012891 10.4609375 39.52734375 C10.03603027 38.73062256 9.61112305 37.93390137 9.17333984 37.11303711 C7.93172036 34.80980754 7.93172036 34.80980754 6 32 C1.79918911 21.62924811 0.88643634 11.04546336 0 0 Z " fill="#1abb9b" transform="translate(110,103)"/><path d="M0 0 C2.92964795 2.92964795 3.91990347 6.62908099 5.375 10.4375 C7.83036755 16.76631465 10.41550634 23.01363889 13.23046875 29.19140625 C13.50582458 29.7979454 13.78118042 30.40448456 14.06488037 31.02940369 C15.43705128 34.04689939 16.82281651 37.05711706 18.22607422 40.06030273 C18.73025879 41.16446533 19.23444336 42.26862793 19.75390625 43.40625 C20.43948608 44.88061523 20.43948608 44.88061523 21.13891602 46.38476562 C22.04917857 49.14936232 22.03673373 50.32812808 21 53 C13.49462183 53.36911696 13.49462183 53.36911696 11.57983398 51.94018555 C9.30124779 49.1418662 8.05480056 45.96623096 6.6796875 42.6640625 C6.37555939 41.94769623 6.07143127 41.23132996 5.75808716 40.49325562 C5.11760244 38.98005822 4.48070726 37.46533715 3.84716797 35.94921875 C2.87987844 33.63666316 1.89987833 31.32981759 0.91796875 29.0234375 C0.29611052 27.54980154 -0.32500788 26.0758531 -0.9453125 24.6015625 C-1.23697296 23.91494537 -1.52863342 23.22832825 -1.82913208 22.52090454 C-3.27727328 19.03815272 -4.42996001 15.7345274 -5 12 C-7.60608273 14.5162178 -9.89381685 17.05134359 -12 20 C-11.4685789 15.48292068 -9.70984317 12.61312423 -7 9 C-6.34 8.67 -5.68 8.34 -5 8 C-3.91852299 6.38240139 -3.91852299 6.38240139 -2.9375 4.5 C-1.08071749 1.08071749 -1.08071749 1.08071749 0 0 Z " fill="#1abb9b" transform="translate(150,109)"/><path d="M0 0 C0.66 0 1.32 0 2 0 C2.10957031 0.77601562 2.21914062 1.55203125 2.33203125 2.3515625 C3.74833718 12.00086634 5.5740222 21.55023885 8 31 C4.28771611 27.40020956 0.89483588 23.61652481 -2.44921875 19.671875 C-3.91350467 17.89673637 -3.91350467 17.89673637 -6 17 C-6.57427734 18.83884766 -6.57427734 18.83884766 -7.16015625 20.71484375 C-9.20097977 26.83252645 -11.8154052 32.67594984 -14.4375 38.5625 C-14.91509766 39.64724609 -15.39269531 40.73199219 -15.88476562 41.84960938 C-23.05974265 58.05974265 -23.05974265 58.05974265 -25 60 C-26.42955789 60.09891197 -27.86390073 60.13079423 -29.296875 60.1328125 C-30.1734375 60.13410156 -31.05 60.13539063 -31.953125 60.13671875 C-32.87609375 60.13285156 -33.7990625 60.12898438 -34.75 60.125 C-35.6575 60.12886719 -36.565 60.13273437 -37.5 60.13671875 C-38.82257813 60.13478516 -38.82257813 60.13478516 -40.171875 60.1328125 C-40.9772168 60.13168457 -41.78255859 60.13055664 -42.61230469 60.12939453 C-45.15347118 59.99168305 -47.51923386 59.55489372 -50 59 C-49.40580527 55.5818962 -48.54003253 52.60424898 -47.15820312 49.42504883 C-46.78111206 48.55096878 -46.404021 47.67688873 -46.01550293 46.77632141 C-45.60819946 45.84595566 -45.200896 44.9155899 -44.78125 43.95703125 C-44.36331177 42.99222336 -43.94537354 42.02741547 -43.51477051 41.03337097 C-42.18108349 37.95773969 -40.84056862 34.88513711 -39.5 31.8125 C-38.59722039 29.73261101 -37.69487165 27.65253494 -36.79296875 25.57226562 C-35.14513461 21.77598294 -33.49622993 17.98017968 -31.84179688 14.18676758 C-31.50950073 13.42463455 -31.17720459 12.66250153 -30.83483887 11.87727356 C-30.2538397 10.57080063 -29.63944219 9.27888437 -29 8 C-28.34 8 -27.68 8 -27 8 C-28.48505587 12.99848073 -30.22688494 17.58083715 -32.6875 22.1875 C-34.69946146 26.04974744 -35.31448376 28.59722731 -35 33 C-35.63474075 34.34882408 -36.29848848 35.6846659 -37 37 C-37 38.32 -37 39.64 -37 41 C-38.28725907 42.70250393 -39.62131719 44.37064759 -41 46 C-41.33 46.99 -41.66 47.98 -42 49 C-42.66 49 -43.32 49 -44 49 C-44.33 51.31 -44.66 53.62 -45 56 C-41.60231132 57.03158741 -38.47860037 57.13377596 -34.9375 57.125 C-33.37322266 57.12886719 -33.37322266 57.12886719 -31.77734375 57.1328125 C-28.91319372 57.12137157 -28.91319372 57.12137157 -26 56 C-24.77479736 52.99152582 -24.77479736 52.99152582 -24 50 C-23.34 50 -22.68 50 -22 50 C-21.80664062 49.18015625 -21.61328125 48.3603125 -21.4140625 47.515625 C-21.15367188 46.43796875 -20.89328125 45.3603125 -20.625 44.25 C-20.24214844 42.64898437 -20.24214844 42.64898437 -19.8515625 41.015625 C-19.12466459 38.44147278 -18.2973776 36.32399814 -17 34 C-16.01 34 -15.02 34 -14 34 C-13.9071875 32.8553125 -13.9071875 32.8553125 -13.8125 31.6875 C-12.64892506 26.40665988 -10.32496736 21.86437346 -8 17 C-7.2958159 15.50310194 -6.59276545 14.00567025 -5.890625 12.5078125 C-3.93386145 8.33532112 -1.96865045 4.16689538 0 0 Z " fill="#065c4a" transform="translate(108,102)"/><path d="M0 0 C0.66 0 1.32 0 2 0 C4.14083676 4.94594023 6.27695968 9.8938786 8.40869141 14.84375 C9.13492889 16.52823102 9.86246371 18.21215332 10.59130859 19.89550781 C11.63718745 22.31170141 12.67842261 24.7298494 13.71875 27.1484375 C14.04685669 27.9036972 14.37496338 28.65895691 14.7130127 29.43710327 C17 34.77225659 17 34.77225659 17 37 C17.66 37 18.32 37 19 37 C19 37.99 19 38.98 19 40 C14.65714286 44 14.65714286 44 12 44 C11.67 44.99 11.34 45.98 11 47 C8.88138461 43.82207691 7.4568276 40.57160817 5.99609375 37.06640625 C5.57107323 36.05488747 5.57107323 36.05488747 5.13746643 35.02293396 C4.54005306 33.59886181 3.9442175 32.17412686 3.34985352 30.7487793 C2.44152101 28.57213557 1.5267956 26.39826032 0.61132812 24.22460938 C0.03086398 22.83870328 -0.54922664 21.45264067 -1.12890625 20.06640625 C-1.40182999 19.4183754 -1.67475372 18.77034454 -1.95594788 18.10267639 C-4.56440897 11.8250494 -4.56440897 11.8250494 -5 9 C-4.0625 6.75 -4.0625 6.75 -3 5 C-2.34 5 -1.68 5 -1 5 C-0.67 3.35 -0.34 1.7 0 0 Z " fill="#076b56" transform="translate(127,59)"/><path d="M0 0 C5.94 0 11.88 0 18 0 C18.33 0.66 18.66 1.32 19 2 C22.236571 2.31999996 25.45237819 2.38003656 28.703125 2.4609375 C32.53266168 3.08709397 34.21269526 4.36987409 37 7 C36.34 9.31 35.68 11.62 35 14 C34.34 14 33.68 14 33 14 C32.81824219 14.99580078 32.81824219 14.99580078 32.6328125 16.01171875 C31.77452292 20.53424459 30.96028689 24.79938524 29 29 C28.34 29 27.68 29 27 29 C27.33 26.03 27.66 23.06 28 20 C18.65035858 13.49191626 9.33906563 7.81109063 -1 3 C-0.67 2.01 -0.34 1.02 0 0 Z " fill="#0a846b" transform="translate(53,80)"/><path d="M0 0 C0.66 0 1.32 0 2 0 C2.10957031 0.77601562 2.21914062 1.55203125 2.33203125 2.3515625 C3.74833718 12.00086634 5.5740222 21.55023885 8 31 C4.28771611 27.40020956 0.89483588 23.61652481 -2.44921875 19.671875 C-3.91350467 17.89673637 -3.91350467 17.89673637 -6 17 C-6.391875 18.258125 -6.78375 19.51625 -7.1875 20.8125 C-9.03884094 26.40212552 -11.48545526 31.68268207 -14 37 C-14.99 37 -15.98 37 -17 37 C-17.66 38.32 -18.32 39.64 -19 41 C-18.125 36.25 -18.125 36.25 -17 34 C-16.01 34 -15.02 34 -14 34 C-13.938125 33.236875 -13.87625 32.47375 -13.8125 31.6875 C-12.64892506 26.40665988 -10.32496736 21.86437346 -8 17 C-7.2958159 15.50310194 -6.59276545 14.00567025 -5.890625 12.5078125 C-3.93386145 8.33532112 -1.96865045 4.16689538 0 0 Z " fill="#076b56" transform="translate(108,102)"/><path d="M0 0 C1.63001953 0.02707031 1.63001953 0.02707031 3.29296875 0.0546875 C4.54013672 0.08949219 4.54013672 0.08949219 5.8125 0.125 C5.27762254 4.15502504 3.28355522 6.02631325 0.4375 8.8125 C-0.35398438 9.60011719 -1.14546875 10.38773438 -1.9609375 11.19921875 C-4.1875 13.125 -4.1875 13.125 -7.1875 14.125 C-7.1875 13.465 -7.1875 12.805 -7.1875 12.125 C-9.96205391 13.1555486 -12.36013099 14.23339621 -14.875 15.8125 C-15.638125 16.245625 -16.40125 16.67875 -17.1875 17.125 C-17.8475 16.795 -18.5075 16.465 -19.1875 16.125 C-18.32100722 12.02885231 -17.72559513 9.64964275 -14.6875 6.6875 C-12.1875 5.125 -12.1875 5.125 -10.1875 5.125 C-9.8575 4.135 -9.5275 3.145 -9.1875 2.125 C-5.66070901 -0.22619399 -4.15870515 -0.08943452 0 0 Z " fill="#1abb9b" transform="translate(156.1875,93.875)"/><path d="M0 0 C2.10637962 2.10637962 2.71014622 3.44376468 3.76953125 6.18359375 C4.09888672 7.02414307 4.42824219 7.86469238 4.76757812 8.73071289 C5.11240234 9.62395264 5.45722656 10.51719238 5.8125 11.4375 C8.40836322 18.07078162 11.07083519 24.59628945 14.1875 31.00390625 C15 33 15 33 15 36 C14.34 36 13.68 36 13 36 C12.27683594 34.22882813 12.27683594 34.22882813 11.5390625 32.421875 C10.90112227 30.86455031 10.26309697 29.30726047 9.625 27.75 C9.30789062 26.97269531 8.99078125 26.19539063 8.6640625 25.39453125 C8.2 24.26337891 8.2 24.26337891 7.7265625 23.109375 C7.44377441 22.41811523 7.16098633 21.72685547 6.86962891 21.01464844 C4.70073447 15.82094787 4.70073447 15.82094787 0 13 C0.57021934 18.3503559 1.20734361 23.67787852 2 29 C-0.57966596 26.42033404 -1.33609844 23.90692108 -2.625 20.5 C-3.29402344 18.75203125 -3.29402344 18.75203125 -3.9765625 16.96875 C-5 14 -5 14 -5 12 C-7.60608273 14.5162178 -9.89381685 17.05134359 -12 20 C-11.4685789 15.48292068 -9.70984317 12.61312423 -7 9 C-6.34 8.67 -5.68 8.34 -5 8 C-3.91852299 6.38240139 -3.91852299 6.38240139 -2.9375 4.5 C-1.08071749 1.08071749 -1.08071749 1.08071749 0 0 Z " fill="#0a846b" transform="translate(150,109)"/><path d="M0 0 C5.94 0 11.88 0 18 0 C18.33 0.66 18.66 1.32 19 2 C21.01669827 3.13350534 21.01669827 3.13350534 23 4 C21.68 4.99 20.36 5.98 19 7 C19.18828772 9.44480079 19.18828772 9.44480079 20 12 C21.78228936 13.14209817 21.78228936 13.14209817 24 14 C25.68889872 15.3050581 27.3603279 16.63360658 29 18 C28.67 18.66 28.34 19.32 28 20 C26.61941406 19.03900391 26.61941406 19.03900391 25.2109375 18.05859375 C16.76564629 12.26066939 8.29292356 7.32428801 -1 3 C-0.67 2.01 -0.34 1.02 0 0 Z " fill="#0a846b" transform="translate(53,80)"/><path d="M0 0 C2 0 2 0 3.4453125 1.43359375 C3.99960938 2.09488281 4.55390625 2.75617188 5.125 3.4375 C5.73988281 4.159375 6.35476562 4.88125 6.98828125 5.625 C7.65214844 6.40875 8.31601563 7.1925 9 8 C10.43165636 9.65091904 11.86906247 11.29687155 13.3125 12.9375 C14.29669922 14.06478516 14.29669922 14.06478516 15.30078125 15.21484375 C16.88954848 17.08624197 16.88954848 17.08624197 19 18 C19.226875 17.29875 19.45375 16.5975 19.6875 15.875 C21.31656867 12.30656387 23.40640731 9.93485489 26 7 C26.33 7.99 26.66 8.98 27 10 C25.25 12.375 25.25 12.375 23 15 C20.48831375 18.67883704 20.48831375 18.67883704 20 23 C21.54282338 25.49269228 21.54282338 25.49269228 23.5 28.0625 C27 32.79166667 27 32.79166667 27 35 C28.485 35.495 28.485 35.495 30 36 C31.1875 38.5625 31.1875 38.5625 32 41 C28.144369 39.71478967 27.32347509 38.04158971 25 34.75 C24.319375 33.79609375 23.63875 32.8421875 22.9375 31.859375 C21.19423447 29.28665248 19.59542795 26.66524844 18 24 C16.58333333 22.41666667 16.58333333 22.41666667 15 21 C12.86612265 18.99948998 11.17525423 17.31545762 9.75 14.75 C7.5247113 11.25311776 4.6995416 8.74462794 1.64453125 5.96484375 C0 4 0 4 0 0 Z " fill="#1abb9b" transform="translate(110,99)"/><path d="M0 0 C0.83790789 1.78953185 1.67019396 3.58169695 2.5 5.375 C2.9640625 6.37273437 3.428125 7.37046875 3.90625 8.3984375 C5 11 5 11 5 13 C6.32 13 7.64 13 9 13 C9 13.99 9 14.98 9 16 C4.65714286 20 4.65714286 20 2 20 C1.67 20.99 1.34 21.98 1 23 C-1.38932765 19.41600853 -2 17.26804999 -2 13 C-2.495 11.88625 -2.99 10.7725 -3.5 9.625 C-4.86976637 6.31473128 -5.31747077 4.49217847 -5 1 C-3 0 -3 0 0 0 Z " fill="#076b56" transform="translate(137,83)"/><path d="M0 0 C0 0.99 0 1.98 0 3 C-1.7578125 4.6484375 -1.7578125 4.6484375 -4.125 6.375 C-4.94613281 6.98988281 -5.76726562 7.60476562 -6.61328125 8.23828125 C-7.79470703 9.11033203 -7.79470703 9.11033203 -9 10 C-13.2731141 13.23043702 -16.23615455 16.42902483 -19 21 C-19.8046875 19.31640625 -19.8046875 19.31640625 -20 17 C-17.9453125 14.52734375 -17.9453125 14.52734375 -15.125 11.9375 C-11.23380497 8.51273162 -11.23380497 8.51273162 -9 4 C-10.91731918 4.11455681 -12.8338675 4.24206258 -14.75 4.375 C-16.35101563 4.47941406 -16.35101563 4.47941406 -17.984375 4.5859375 C-20.80206432 4.9728223 -22.5830366 5.55686166 -25 7 C-23.63016497 3.83884224 -23.0109362 3.0072908 -20 1 C-13.49329876 -0.43689652 -6.62107474 -0.11138257 0 0 Z " fill="#1abb9b" transform="translate(171,90)"/><path d="M0 0 C1.98 1.65 3.96 3.3 6 5 C5.46375 5.474375 4.9275 5.94875 4.375 6.4375 C2.48204819 9.96527383 3.37524681 11.93990999 4.3984375 15.6875 C5 18 5 18 5.375 21.8125 C5.69296951 25.07811018 5.69296951 25.07811018 8 26.875 C11.0430987 30.10829236 10.81622092 33.69956944 11 38 C11.66 38 12.32 38 13 38 C14.36936501 40.40912355 15.72041993 42.82574185 17.0625 45.25 C17.45244141 45.93191406 17.84238281 46.61382812 18.24414062 47.31640625 C18.79038086 48.31220703 18.79038086 48.31220703 19.34765625 49.328125 C19.68804932 49.9355957 20.02844238 50.54306641 20.37915039 51.16894531 C21.15628879 53.46093824 20.76849965 54.74457325 20 57 C19.47043701 56.02389771 19.47043701 56.02389771 18.93017578 55.02807617 C17.32992013 52.08041684 15.72748599 49.13394736 14.125 46.1875 C13.56941406 45.16333984 13.01382813 44.13917969 12.44140625 43.08398438 C11.90644531 42.10107422 11.37148437 41.11816406 10.8203125 40.10546875 C10.32805176 39.19949951 9.83579102 38.29353027 9.32861328 37.36010742 C8.29688304 35.52737382 7.16663616 33.74995424 6 32 C1.79918911 21.62924811 0.88643634 11.04546336 0 0 Z " fill="#0d9478" transform="translate(110,103)"/><path d="M0 0 C3.77269733 1.25756578 4.88388365 2.67467431 7 6 C6.80654378 8.77287249 6.23457223 10.53085554 5 13 C4.34 13 3.68 13 3 13 C3.391875 13.9075 3.78375 14.815 4.1875 15.75 C4.79242652 17.16634237 5.39644943 18.58307074 6 20 C6.433125 21.01191406 6.86625 22.02382812 7.3125 23.06640625 C7.76625 24.13761719 8.22 25.20882812 8.6875 26.3125 C9.34298828 27.85357422 9.34298828 27.85357422 10.01171875 29.42578125 C11 32 11 32 11 34 C10.34 34 9.68 34 9 34 C3.70857433 22.46921947 -0.40903894 12.88472669 0 0 Z " fill="#0d9478" transform="translate(150,122)"/><path d="M0 0 C0 0.99 0 1.98 0 3 C-0.66 3 -1.32 3 -2 3 C-2.433125 4.175625 -2.433125 4.175625 -2.875 5.375 C-4 8 -4 8 -6 10 C-6.46006346 12.20250992 -6.46006346 12.20250992 -6.625 14.625 C-6.69976562 15.44226563 -6.77453125 16.25953125 -6.8515625 17.1015625 C-6.90054688 17.72804687 -6.94953125 18.35453125 -7 19 C-9.90783477 15.46905778 -12.71858548 11.97135119 -15 8 C-14.75 5.625 -14.75 5.625 -14 4 C-12.0625 3.4375 -12.0625 3.4375 -10 3 C-9 4 -9 4 -7 7 C-6.67 6.01 -6.34 5.02 -6 4 C-4.04402816 2.60287726 -2.04563599 1.26220093 0 0 Z " fill="#0d9478" transform="translate(145,115)"/><path d="M0 0 C3 1 3 1 4.421875 3.36328125 C4.86015625 4.33652344 5.2984375 5.30976563 5.75 6.3125 C6.19859375 7.27800781 6.6471875 8.24351562 7.109375 9.23828125 C8.02884475 12.08944404 8.06798426 13.25840627 7 16 C5.35 16.33 3.7 16.66 2 17 C1.29634398 15.4447088 0.61270622 13.88035173 -0.0625 12.3125 C-0.44535156 11.44238281 -0.82820312 10.57226562 -1.22265625 9.67578125 C-2.30221064 5.95972721 -1.70674857 3.41349713 0 0 Z " fill="#1abb9b" transform="translate(155,130)"/><path d="M0 0 C0.33 0 0.66 0 1 0 C0.50269348 4.97306516 -0.55302334 8.63799813 -3 13 C-3.721875 12.525625 -4.44375 12.05125 -5.1875 11.5625 C-9.5680647 9.30360639 -14.33959602 9.49063166 -19.171875 9.30859375 C-22 9 -22 9 -24 7 C-22.28183162 5.28183162 -20.11252386 5.86781255 -17.82421875 5.86328125 C-16.79748047 5.86908203 -16.79748047 5.86908203 -15.75 5.875 C-14.74646484 5.86919922 -14.74646484 5.86919922 -13.72265625 5.86328125 C-10.0219637 5.87055177 -6.59740053 6.12156499 -3 7 C-2.01 4.69 -1.02 2.38 0 0 Z " fill="#0d9478" transform="translate(94,74)"/><path d="M0 0 C1.98 0 3.96 0 6 0 C6.05800781 0.598125 6.11601563 1.19625 6.17578125 1.8125 C7.37026083 4.98268277 9.19945712 5.51605967 12.1875 7 C18.2892739 10.14166367 23.69626804 13.63222074 29 18 C28.67 18.66 28.34 19.32 28 20 C26.61941406 19.03900391 26.61941406 19.03900391 25.2109375 18.05859375 C16.76564629 12.26066939 8.29292356 7.32428801 -1 3 C-0.67 2.01 -0.34 1.02 0 0 Z " fill="#076b56" transform="translate(53,80)"/><path d="M0 0 C0.04898438 0.96421875 0.09796875 1.9284375 0.1484375 2.921875 C0.22320312 4.18515625 0.29796875 5.4484375 0.375 6.75 C0.44460937 8.00296875 0.51421875 9.2559375 0.5859375 10.546875 C0.96042048 13.66992176 1.49493249 15.32971893 3 18 C3.125 20.75 3.125 20.75 3 23 C0.42033404 20.42033404 -0.33609844 17.90692108 -1.625 14.5 C-2.29402344 12.75203125 -2.29402344 12.75203125 -2.9765625 10.96875 C-4 8 -4 8 -4 6 C-6.60608273 8.5162178 -8.89381685 11.05134359 -11 14 C-10.46608326 9.46170772 -8.80333268 6.5820362 -6 3 C-1.7 0 -1.7 0 0 0 Z " fill="#076b56" transform="translate(149,115)"/><path d="M0 0 C0.66 0 1.32 0 2 0 C0.51494413 4.99848073 -1.22688494 9.58083715 -3.6875 14.1875 C-5.69946146 18.04974744 -6.31448376 20.59722731 -6 25 C-6.63474075 26.34882408 -7.29848848 27.6846659 -8 29 C-8 30.32 -8 31.64 -8 33 C-8.66 33.66 -9.32 34.32 -10 35 C-10.99 34.67 -11.98 34.34 -13 34 C-12.72285156 33.26394531 -12.44570312 32.52789062 -12.16015625 31.76953125 C-11.79792969 30.79371094 -11.43570313 29.81789062 -11.0625 28.8125 C-10.52302734 27.36810547 -10.52302734 27.36810547 -9.97265625 25.89453125 C-8.95981897 23.13694933 -8.95981897 23.13694933 -8.625 20.71875 C-7.64783015 16.46806117 -5.74534692 12.64353117 -3.9375 8.6875 C-3.37192383 7.43356445 -3.37192383 7.43356445 -2.79492188 6.15429688 C-1.86788193 4.10072738 -0.93613122 2.04943713 0 0 Z " fill="#0a846b" transform="translate(79,110)"/><path d="M0 0 C1.07636719 0.00322266 2.15273437 0.00644531 3.26171875 0.00976562 C4.38964844 0.01814453 5.51757812 0.02652344 6.6796875 0.03515625 C7.81535156 0.03966797 8.95101562 0.04417969 10.12109375 0.04882812 C12.93234388 0.0606401 15.7434898 0.07711118 18.5546875 0.09765625 C18.8846875 0.75765625 19.2146875 1.41765625 19.5546875 2.09765625 C11.3046875 2.09765625 3.0546875 2.09765625 -5.4453125 2.09765625 C-5.7753125 3.41765625 -6.1053125 4.73765625 -6.4453125 6.09765625 C-7.66522533 8.50808641 -9.06032936 10.77445873 -10.4453125 13.09765625 C-11.64403522 9.50148809 -11.17031537 8.80843986 -9.6328125 5.47265625 C-9.27574219 4.67601562 -8.91867188 3.879375 -8.55078125 3.05859375 C-6.49435111 -0.58920813 -3.8577844 -0.02030413 0 0 Z " fill="#0a846b" transform="translate(108.4453125,56.90234375)"/><path d="M0 0 C1.1875 1.6875 1.1875 1.6875 2 4 C0.625 6.5625 0.625 6.5625 -1 9 C-1 9.99 -1 10.98 -1 12 C-1.33 12.99 -1.66 13.98 -2 15 C-1.34 15.66 -0.68 16.32 0 17 C0 17.66 0 18.32 0 19 C-0.763125 19.12375 -1.52625 19.2475 -2.3125 19.375 C-5.20267136 19.88102792 -5.20267136 19.88102792 -8 22 C-7.67 20.68 -7.34 19.36 -7 18 C-7.66 17.67 -8.32 17.34 -9 17 C-8.01 17 -7.02 17 -6 17 C-5.79503906 16.16855469 -5.59007813 15.33710937 -5.37890625 14.48046875 C-4.97478516 12.85044922 -4.97478516 12.85044922 -4.5625 11.1875 C-4.29566406 10.10855469 -4.02882813 9.02960938 -3.75390625 7.91796875 C-3.23922588 5.9259157 -2.65062825 3.95188476 -2 2 C-1.34 2 -0.68 2 0 2 C0 1.34 0 0.68 0 0 Z " fill="#1abb9b" transform="translate(88,92)"/><path d="M0 0 C3.3 0 6.6 0 10 0 C10 0.33 10 0.66 10 1 C8.02 1.33 6.04 1.66 4 2 C3.67 2.99 3.34 3.98 3 5 C2.01 5.495 2.01 5.495 1 6 C0.67 6.99 0.34 7.98 0 9 C-0.99 9.495 -0.99 9.495 -2 10 C-2.495 10.99 -2.99 11.98 -3.5 13 C-5 16 -5 16 -7 17 C-5.69925606 10.49628031 -3.38877665 5.7074133 0 0 Z " fill="#1abb9b" transform="translate(103,59)"/><path d="M0 0 C0.66 0 1.32 0 2 0 C1.67 2.97 1.34 5.94 1 9 C0.34 9 -0.32 9 -1 9 C-1.4021875 10.36125 -1.4021875 10.36125 -1.8125 11.75 C-2.89576294 14.71471963 -3.98359457 16.6169754 -6 19 C-5.343621 14.51474352 -4.29925791 10.33085971 -3 6 C-3.66 5.67 -4.32 5.34 -5 5 C-4.360625 4.731875 -3.72125 4.46375 -3.0625 4.1875 C-0.66868314 3.11332248 -0.66868314 3.11332248 0 0 Z " fill="#1abb9b" transform="translate(109,93)"/><path d="M0 0 C2.42746041 2.42746041 3.26471252 4.64806369 4.6015625 7.8125 C5.09140625 8.97007813 5.58125 10.12765625 6.0859375 11.3203125 C6.59382812 12.53460938 7.10171875 13.74890625 7.625 15 C8.140625 16.21429688 8.65625 17.42859375 9.1875 18.6796875 C13 27.73689649 13 27.73689649 13 30 C12.34 30 11.68 30 11 30 C9.89311656 27.50117273 8.78944889 25.00100271 7.6875 22.5 C7.37876953 21.80390625 7.07003906 21.1078125 6.75195312 20.390625 C0.87994026 7.03952206 0.87994026 7.03952206 0 0 Z " fill="#076b56" transform="translate(131,66)"/><path d="M0 0 C0.69699552 1.45381897 1.38233866 2.91322953 2.0625 4.375 C2.44535156 5.18710938 2.82820312 5.99921875 3.22265625 6.8359375 C3.47917969 7.55007812 3.73570312 8.26421875 4 9 C3.67 9.66 3.34 10.32 3 11 C0 6.25 0 6.25 0 4 C-1.65 4.33 -3.3 4.66 -5 5 C-5.33 6.32 -5.66 7.64 -6 9 C-7.25664978 6.09399739 -8 4.20395416 -8 1 C-5.10765685 0.17361624 -3.11257569 0 0 0 Z " fill="#1abb9b" transform="translate(166,145)"/><path d="M0 0 C4.29 0 8.58 0 13 0 C12.67 1.65 12.34 3.3 12 5 C11.34 5 10.68 5 10 5 C9.87625 5.639375 9.7525 6.27875 9.625 6.9375 C9.41875 7.618125 9.2125 8.29875 9 9 C8.01 9.495 8.01 9.495 7 10 C6.45627049 6.94152152 6 4.11227195 6 1 C4.35 1.33 2.7 1.66 1 2 C0.67 1.34 0.34 0.68 0 0 Z " fill="#1abb9b" transform="translate(114,59)"/><path d="M0 0 C0.66 0 1.32 0 2 0 C3.62109375 1.64453125 3.62109375 1.64453125 5.4375 3.8125 C7.95247562 6.8192986 7.95247562 6.8192986 10.78515625 9.51171875 C11.18605469 10.00285156 11.58695313 10.49398437 12 11 C11.6875 13.1875 11.6875 13.1875 11 15 C9.15398988 13.26187359 7.32385273 11.51111579 5.5 9.75 C4.97535156 9.25886719 4.45070313 8.76773438 3.91015625 8.26171875 C2.52909948 6.91653358 1.25735528 5.4614714 0 4 C0 2.68 0 1.36 0 0 Z " fill="#1abb9b" transform="translate(110,99)"/><path d="M0 0 C0.66 0 1.32 0 2 0 C2.96070434 2.88211302 3.10581883 4.69850044 3.0625 7.6875 C3.05347656 8.49574219 3.04445313 9.30398437 3.03515625 10.13671875 C3.02355469 10.75160156 3.01195313 11.36648437 3 12 C1.68 11.01 0.36 10.02 -1 9 C-1.99 10.485 -1.99 10.485 -3 12 C-3.66 12 -4.32 12 -5 12 C-3.68938409 7.76570244 -2.05643741 3.92592596 0 0 Z " fill="#076b56" transform="translate(108,102)"/><path d="M0 0 C0.66 0 1.32 0 2 0 C-0.16163513 6.93998648 -2.8936214 13.43117569 -6 20 C-6.99 20 -7.98 20 -9 20 C-9.66 21.32 -10.32 22.64 -11 24 C-10.125 19.25 -10.125 19.25 -9 17 C-8.01 17 -7.02 17 -6 17 C-5.938125 16.236875 -5.87625 15.47375 -5.8125 14.6875 C-4.65512209 9.43478486 -2.32802005 4.8278497 0 0 Z " fill="#076b56" transform="translate(100,119)"/><path d="M0 0 C2 2 2 2 2 5 C2.66 5 3.32 5 4 5 C5.36936501 7.40912355 6.72041993 9.82574185 8.0625 12.25 C8.45244141 12.93191406 8.84238281 13.61382812 9.24414062 14.31640625 C9.60830078 14.98027344 9.97246094 15.64414063 10.34765625 16.328125 C10.68804932 16.9355957 11.02844238 17.54306641 11.37915039 18.16894531 C12.15628879 20.46093824 11.76849965 21.74457325 11 24 C8.96621887 20.38211799 6.9502167 16.75463659 4.9375 13.125 C4.35677734 12.09246094 3.77605469 11.05992187 3.17773438 9.99609375 C2.63310547 9.00996094 2.08847656 8.02382812 1.52734375 7.0078125 C1.01937256 6.09660645 0.51140137 5.18540039 -0.01196289 4.24658203 C-0.33801514 3.50520996 -0.66406738 2.76383789 -1 2 C-0.67 1.34 -0.34 0.68 0 0 Z " fill="#0d9478" transform="translate(119,136)"/><path d="M0 0 C3.09421227 3.64641016 4.81303755 7.71484283 6.6875 12.0625 C7.00783203 12.78244141 7.32816406 13.50238281 7.65820312 14.24414062 C8.99235942 17.30786415 10 19.62278005 10 23 C9.34 23 8.68 23 8 23 C7.50628906 21.78441406 7.01257813 20.56882813 6.50390625 19.31640625 C5.85690291 17.7317169 5.2097603 16.14708441 4.5625 14.5625 C4.07426758 13.35883789 4.07426758 13.35883789 3.57617188 12.13085938 C3.10727539 10.98520508 3.10727539 10.98520508 2.62890625 9.81640625 C2.34088135 9.10943604 2.05285645 8.40246582 1.75610352 7.67407227 C1.11946155 6.00167233 1.11946155 6.00167233 0 5 C-0.04063832 3.33382885 -0.042721 1.66611905 0 0 Z " fill="#0d9478" transform="translate(155,122)"/><path d="M0 0 C0.33 0.99 0.66 1.98 1 3 C-0.75 5.375 -0.75 5.375 -3 8 C-3.7734375 9.3921875 -3.7734375 9.3921875 -4.5625 10.8125 C-5.036875 11.534375 -5.51125 12.25625 -6 13 C-9 13 -9 13 -11.6875 10.5 C-12.450625 9.675 -13.21375 8.85 -14 8 C-13.67 7.34 -13.34 6.68 -13 6 C-11.02 7.65 -9.04 9.3 -7 11 C-6.773125 10.29875 -6.54625 9.5975 -6.3125 8.875 C-4.68343133 5.30656387 -2.59359269 2.93485489 0 0 Z " fill="#0a846b" transform="translate(136,106)"/><path d="M0 0 C0.66 0 1.32 0 2 0 C-0.58125669 8.17397951 -3.77011881 16.06640834 -7 24 C-7.33 24 -7.66 24 -8 24 C-8.125 21.125 -8.125 21.125 -8 18 C-7.34 17.34 -6.68 16.68 -6 16 C-5.27672855 14.06185854 -4.61786556 12.09927355 -4 10.125 C-2.88648189 6.5843604 -1.76848706 3.26854304 0 0 Z " fill="#0d9478" transform="translate(119,74)"/><path d="M0 0 C2.475 0.99 2.475 0.99 5 2 C4.33989524 4.84550012 3.48275034 7.52325999 2.4375 10.25 C2.16808594 10.95640625 1.89867188 11.6628125 1.62109375 12.390625 C1.41613281 12.92171875 1.21117188 13.4528125 1 14 C0.34 13.67 -0.32 13.34 -1 13 C0 5.57142857 0 5.57142857 1 2 C0.34 1.67 -0.32 1.34 -1 1 C-0.67 0.67 -0.34 0.34 0 0 Z " fill="#1abb9b" transform="translate(114,72)"/><path d="M0 0 C0.66 2.31 1.32 4.62 2 7 C0.02 7 -1.96 7 -4 7 C-4.33 7.66 -4.66 8.32 -5 9 C-5.66 8.34 -6.32 7.68 -7 7 C-6.34 7 -5.68 7 -5 7 C-5 5.02 -5 3.04 -5 1 C-2 0 -2 0 0 0 Z " fill="#1abb9b" transform="translate(166,149)"/><path d="M0 0 C0.99 0.33 1.98 0.66 3 1 C3.80859375 2.71484375 3.80859375 2.71484375 4.4375 4.9375 C5.99485276 10.09001816 7.95374288 15.02458294 10 20 C7 19 7 19 6.0168457 17.35766602 C5.6005188 16.31630493 5.6005188 16.31630493 5.17578125 15.25390625 C4.86962891 14.49916016 4.56347656 13.74441406 4.24804688 12.96679688 C3.93931641 12.17337891 3.63058594 11.37996094 3.3125 10.5625 C2.99216797 9.77294922 2.67183594 8.98339844 2.34179688 8.16992188 C0 2.3129331 0 2.3129331 0 0 Z " fill="#065c4a" transform="translate(127,79)"/><path d="M0 0 C3.44327041 3.04596998 5.05662598 5.87065909 6.75 10.125 C7.17796875 11.17945313 7.6059375 12.23390625 8.046875 13.3203125 C9 16 9 16 9 18 C8.34 18 7.68 18 7 18 C5.82887054 15.37690901 4.66294036 12.75171858 3.5 10.125 C3.16613281 9.37863281 2.83226562 8.63226563 2.48828125 7.86328125 C2.17246094 7.14785156 1.85664063 6.43242187 1.53125 5.6953125 C1.23798828 5.03547363 0.94472656 4.37563477 0.64257812 3.69580078 C0 2 0 2 0 0 Z " fill="#0d9478" transform="translate(152,138)"/><path d="M0 0 C0.66 0.33 1.32 0.66 2 1 C1.32453125 1.58007812 0.6490625 2.16015625 -0.046875 2.7578125 C-4.73589214 6.86409051 -8.92427098 10.54757128 -12 16 C-12.796875 14.3203125 -12.796875 14.3203125 -13 12 C-11.015625 9.4921875 -11.015625 9.4921875 -8.25 6.875 C-7.34765625 6.00617188 -6.4453125 5.13734375 -5.515625 4.2421875 C-3 2 -3 2 0 0 Z " fill="#0d9478" transform="translate(164,95)"/><path d="M0 0 C3.3 0 6.6 0 10 0 C10 0.99 10 1.98 10 3 C8.375 4.125 8.375 4.125 6 5 C2.75 4.125 2.75 4.125 0 3 C0 2.01 0 1.02 0 0 Z " fill="#0d9478" transform="translate(161,90)"/><path d="M0 0 C0.639375 0.2475 1.27875 0.495 1.9375 0.75 C2.2675 1.74 2.5975 2.73 2.9375 3.75 C1.9475 5.235 1.9475 5.235 0.9375 6.75 C-0.3825 6.42 -1.7025 6.09 -3.0625 5.75 C-3.3925 4.1 -3.7225 2.45 -4.0625 0.75 C-2.0625 -0.25 -2.0625 -0.25 0 0 Z " fill="#1abb9b" transform="translate(134.0625,152.25)"/><path d="M0 0 C0.99 0.33 1.98 0.66 3 1 C3.19627391 2.58226965 3.38165538 4.16589271 3.5625 5.75 C3.66691406 6.63171875 3.77132812 7.5134375 3.87890625 8.421875 C3.99456676 10.88432451 3.73638695 12.66538064 3 15 C-0.32579769 10.01130346 0 5.84484418 0 0 Z " fill="#076b56" transform="translate(135,91)"/><path d="M0 0 C0.66 0.66 1.32 1.32 2 2 C1.67 2.5775 1.34 3.155 1 3.75 C-0.27075898 6.19883862 -0.27075898 6.19883862 0 10 C-0.66 10.66 -1.32 11.32 -2 12 C-2.99 11.67 -3.98 11.34 -5 11 C-3.35 7.37 -1.7 3.74 0 0 Z " fill="#076b56" transform="translate(71,133)"/><path d="M0 0 C3 1 3 1 4.1875 2.875 C5 5 5 5 5 8 C2.69 7.67 0.38 7.34 -2 7 C-1.125 2.25 -1.125 2.25 0 0 Z " fill="#0d9478" transform="translate(155,130)"/><path d="M0 0 C1.28317892 3.84953676 1.06643637 6.94738135 1 11 C0.38125 11.12375 -0.2375 11.2475 -0.875 11.375 C-3.19120832 11.87197356 -3.19120832 11.87197356 -5 14 C-4.34580901 8.93001981 -2.1453591 4.58009223 0 0 Z " fill="#1abb9b" transform="translate(95,77)"/><path d="M0 0 C0.66 0 1.32 0 2 0 C1.28031337 3.18294396 0.25157765 6.14974313 -0.9375 9.1875 C-1.44603516 10.50814453 -1.44603516 10.50814453 -1.96484375 11.85546875 C-3 14 -3 14 -5 15 C-3.97137215 9.55432314 -2.75385216 4.88182883 0 0 Z " fill="#0d9478" transform="translate(101,112)"/><path d="M0 0 C3.96 0 7.92 0 12 0 C12.33 0.99 12.66 1.98 13 3 C8.07872966 3.16682272 4.49656104 3.24828052 0 1 C0 0.67 0 0.34 0 0 Z " fill="#0a846b" transform="translate(59,80)"/><path d="M0 0 C0.33 0.99 0.66 1.98 1 3 C-1.2397148 5.2397148 -6.42897488 4.18531833 -9.4375 4.1875 C-10.32244141 4.19974609 -11.20738281 4.21199219 -12.11914062 4.22460938 C-12.96541016 4.22654297 -13.81167969 4.22847656 -14.68359375 4.23046875 C-15.46275146 4.23457764 -16.24190918 4.23868652 -17.04467773 4.24291992 C-19 4 -19 4 -21 2 C-20.15236084 2.01571045 -20.15236084 2.01571045 -19.28759766 2.03173828 C-16.73344347 2.07324788 -14.17936018 2.0993096 -11.625 2.125 C-10.29082031 2.15013672 -10.29082031 2.15013672 -8.9296875 2.17578125 C-8.07890625 2.18222656 -7.228125 2.18867188 -6.3515625 2.1953125 C-5.56604004 2.20578613 -4.78051758 2.21625977 -3.97119141 2.22705078 C-1.765535 2.17990127 -1.765535 2.17990127 0 0 Z " fill="#0d9478" transform="translate(152,158)"/><path d="M0 0 C2 1 2 1 3 2 C3.14115161 4.67058851 3.04247107 7.32432238 3 10 C-1.42857143 4.85714286 -1.42857143 4.85714286 -2 1 C-1.34 0.67 -0.68 0.34 0 0 Z " fill="#0d9478" transform="translate(135,124)"/><path d="M0 0 C1.21236328 0.02707031 1.21236328 0.02707031 2.44921875 0.0546875 C3.37154297 0.08949219 3.37154297 0.08949219 4.3125 0.125 C2.3125 2.125 2.3125 2.125 -1 2.5625 C-4.67762577 3.12349376 -6.67480651 4.02524393 -9.6875 6.125 C-7.58496928 1.27300604 -5.24222142 -0.15194845 0 0 Z " fill="#0d9478" transform="translate(155.6875,90.875)"/><path d="M0 0 C0.66 0.66 1.32 1.32 2 2 C1.625 4.125 1.625 4.125 1 6 C-6.50769231 6.36923077 -6.50769231 6.36923077 -9 4.5 C-9.33 4.005 -9.66 3.51 -10 3 C-9.67 2.34 -9.34 1.68 -9 1 C-8.67 1.99 -8.34 2.98 -8 4 C-5.36 4 -2.72 4 0 4 C0 2.68 0 1.36 0 0 Z " fill="#1abb9b" transform="translate(170,156)"/><path d="M0 0 C1.32 0.66 2.64 1.32 4 2 C3.67 3.98 3.34 5.96 3 8 C1.35 6.35 -0.3 4.7 -2 3 C-1.34 2.01 -0.68 1.02 0 0 Z " fill="#0a846b" transform="translate(91,128)"/><path d="M0 0 C3 1 3 1 5 4 C4.625 6.1875 4.625 6.1875 4 8 C4 7.34 4 6.68 4 6 C2.68 5.34 1.36 4.68 0 4 C0 6.31 0 8.62 0 11 C-0.33 11 -0.66 11 -1 11 C-1.125 3.375 -1.125 3.375 0 0 Z " fill="#0a846b" transform="translate(150,118)"/><path d="M0 0 C2.97 0.495 2.97 0.495 6 1 C6 1.99 6 2.98 6 4 C5.236875 4.12375 4.47375 4.2475 3.6875 4.375 C0.79732864 4.88102792 0.79732864 4.88102792 -2 7 C-1.67 5.68 -1.34 4.36 -1 3 C-1.66 2.67 -2.32 2.34 -3 2 C-2.01 2 -1.02 2 0 2 C0 1.34 0 0.68 0 0 Z " fill="#0d9478" transform="translate(82,107)"/><path d="M0 0 C0.33 0 0.66 0 1 0 C0.53199289 4.05606165 0.12046792 7.46588679 -2 11 C-3.98 10.01 -5.96 9.02 -8 8 C-6 7 -6 7 -3 7 C-2.01 4.69 -1.02 2.38 0 0 Z " fill="#0d9478" transform="translate(94,74)"/><path d="M0 0 C2.46140365 2.46140365 3.30326986 4.78456293 4.625 8 C5.07101563 9.0725 5.51703125 10.145 5.9765625 11.25 C7 14 7 14 7 16 C6.34 16 5.68 16 5 16 C2.54053077 10.74567937 1.09698167 5.69139902 0 0 Z " fill="#076b56" transform="translate(131,66)"/><path d="M0 0 C1.98 0 3.96 0 6 0 C6 0.99 6 1.98 6 3 C3 5.1875 3 5.1875 0 7 C0 4.69 0 2.38 0 0 Z " fill="#0a846b" transform="translate(140,96)"/><path d="M0 0 C0 0.99 0 1.98 0 3 C-0.66 3 -1.32 3 -2 3 C-2.4021875 4.2065625 -2.4021875 4.2065625 -2.8125 5.4375 C-3.204375 6.283125 -3.59625 7.12875 -4 8 C-4.99 8.33 -5.98 8.66 -7 9 C-7.66 8.34 -8.32 7.68 -9 7 C-8.34 7 -7.68 7 -7 7 C-6.67 6.01 -6.34 5.02 -6 4 C-4.04402816 2.60287726 -2.04563599 1.26220093 0 0 Z " fill="#0d9478" transform="translate(145,115)"/><path d="M0 0 C1.98 0.495 1.98 0.495 4 1 C3.34 3.97 2.68 6.94 2 10 C1.34 9.67 0.68 9.34 0 9 C-0.85056945 5.44307323 -1.16909807 3.50729422 0 0 Z " fill="#0a846b" transform="translate(138,93)"/><path d="M0 0 C0.66 0.66 1.32 1.32 2 2 C1 3 1 3 -2.625 3.125 C-6.49887722 3.08304465 -10.18165644 2.63639059 -14 2 C-14 1.67 -14 1.34 -14 1 C-12.73542969 1.01740234 -12.73542969 1.01740234 -11.4453125 1.03515625 C-10.34960938 1.04417969 -9.25390625 1.05320313 -8.125 1.0625 C-6.48917969 1.07990234 -6.48917969 1.07990234 -4.8203125 1.09765625 C-2.04822454 1.19744303 -2.04822454 1.19744303 0 0 Z " fill="#065c4a" transform="translate(81,158)"/><path d="M0 0 C2.83374881 3.20336822 3.5205537 5.78087253 4 10 C2.68 9.67 1.36 9.34 0 9 C0.185625 8.443125 0.37125 7.88625 0.5625 7.3125 C1.07551165 4.600867 0.6640724 2.65628961 0 0 Z " fill="#1abb9b" transform="translate(145,149)"/><path d="M0 0 C4.81430721 -0.56638908 7.20307814 1.17438373 11 4 C10.34 4.66 9.68 5.32 9 6 C6.03 4.35 3.06 2.7 0 1 C0 0.67 0 0.34 0 0 Z " fill="#1abb9b" transform="translate(81,81)"/><path d="M0 0 C0.99 0 1.98 0 3 0 C3 2.64 3 5.28 3 8 C2.01 8.495 2.01 8.495 1 9 C0.45627049 5.94152152 0 3.11227195 0 0 Z " fill="#1abb9b" transform="translate(120,60)"/><path d="M0 0 C1.0546875 1.859375 1.0546875 1.859375 2 4 C1.125 6.25 1.125 6.25 0 8 C-0.66 8 -1.32 8 -2 8 C-2.33 9.65 -2.66 11.3 -3 13 C-3.93045933 10.44855176 -4.08564091 9.25993522 -3.22265625 6.640625 C-2.83980469 5.85171875 -2.45695312 5.0628125 -2.0625 4.25 C-1.68222656 3.45078125 -1.30195312 2.6515625 -0.91015625 1.828125 C-0.60980469 1.22484375 -0.30945313 0.6215625 0 0 Z " fill="#0a846b" transform="translate(76,120)"/><path d="M0 0 C1.53445094 3.06890187 0.54984289 5.70094266 0 9 C-0.33 9 -0.66 9 -1 9 C-1.33 7.35 -1.66 5.7 -2 4 C-2.99 4.495 -2.99 4.495 -4 5 C-3.6875 3.0625 -3.6875 3.0625 -3 1 C-2.01 0.67 -1.02 0.34 0 0 Z " fill="#0a846b" transform="translate(150,112)"/><path d="M0 0 C3.3 0 6.6 0 10 0 C10 0.99 10 1.98 10 3 C9.01 3.495 9.01 3.495 8 4 C8 3.01 8 2.02 8 1 C5.36 1.33 2.72 1.66 0 2 C0 1.34 0 0.68 0 0 Z " fill="#0d9478" transform="translate(161,90)"/></svg>